<svg width="450" height="180" viewBox="0 0 450 180" fill="none" xmlns="http://www.w3.org/2000/svg">
    <g clip-path="url(#clip0_1490_50639)">
        <g filter="url(#filter0_df_1490_50639)">
            <rect x="256" y="80" width="110" height="50" rx="18" fill="white"/>
            <rect x="274" y="87" width="36" height="36" rx="12" fill="#B0FFA3"/>
            <path d="M299.355 105.381L288.472 111.211C287.806 111.568 287 111.086 287 110.33V98.6702C287 97.9144 287.806 97.4318 288.472 97.7887L299.355 103.619C300.058 103.996 300.058 105.004 299.355 105.381Z" stroke="#282828" stroke-width="1.5"/>
            <path d="M324.604 95.6719H326.125C326.095 94.1974 324.838 93.1534 322.98 93.1534C321.148 93.1534 319.771 94.1847 319.776 95.7273C319.776 96.9801 320.666 97.7003 322.102 98.071L323.095 98.3267C324.037 98.5653 324.659 98.8594 324.663 99.5369C324.659 100.283 323.952 100.781 322.92 100.781C321.932 100.781 321.165 100.338 321.101 99.4219H319.545C319.609 101.156 320.901 102.132 322.933 102.132C325.026 102.132 326.24 101.088 326.244 99.5497C326.24 98.0369 324.991 97.3466 323.679 97.0355L322.861 96.831C322.145 96.6605 321.369 96.358 321.378 95.6293C321.382 94.973 321.97 94.4915 322.959 94.4915C323.901 94.4915 324.523 94.9304 324.604 95.6719ZM330.864 95.4545H329.573V93.8864H328.03V95.4545H327.101V96.6477H328.03V100.287C328.022 101.518 328.917 102.124 330.076 102.089C330.515 102.077 330.817 101.991 330.983 101.936L330.723 100.73C330.638 100.751 330.463 100.79 330.272 100.79C329.884 100.79 329.573 100.653 329.573 100.031V96.6477H330.864V95.4545ZM334.048 102.132C335.075 102.132 335.688 101.651 335.97 101.101H336.021V102H337.504V97.6193C337.504 95.8892 336.093 95.3693 334.845 95.3693C333.468 95.3693 332.411 95.983 332.07 97.1761L333.511 97.3807C333.664 96.9332 334.099 96.5497 334.853 96.5497C335.569 96.5497 335.961 96.9162 335.961 97.5597V97.5852C335.961 98.0284 335.497 98.0497 334.342 98.1733C333.072 98.3097 331.857 98.6889 331.857 100.163C331.857 101.45 332.799 102.132 334.048 102.132ZM334.448 100.999C333.805 100.999 333.345 100.705 333.345 100.138C333.345 99.5455 333.86 99.2983 334.551 99.2003C334.955 99.1449 335.765 99.0426 335.965 98.8807V99.652C335.965 100.381 335.377 100.999 334.448 100.999ZM339.065 102H340.607V98.152C340.607 97.321 341.234 96.733 342.082 96.733C342.342 96.733 342.666 96.7798 342.798 96.8224V95.4034C342.657 95.3778 342.414 95.3608 342.244 95.3608C341.494 95.3608 340.867 95.7869 340.629 96.5455H340.561V95.4545H339.065V102ZM347.453 95.4545H346.161V93.8864H344.619V95.4545H343.69V96.6477H344.619V100.287C344.61 101.518 345.505 102.124 346.664 102.089C347.103 102.077 347.406 101.991 347.572 101.936L347.312 100.73C347.227 100.751 347.052 100.79 346.86 100.79C346.473 100.79 346.161 100.653 346.161 100.031V96.6477H347.453V95.4545Z" fill="#282828"/>
            <rect opacity="0.1" x="319" y="110" width="18" height="8" rx="4" fill="#282828"/>
        </g>
        <g filter="url(#filter1_df_1490_50639)">
            <rect x="84" y="113" width="117" height="50" rx="18" fill="white"/>
            <rect x="102" y="120" width="36" height="36" rx="12" fill="#92EBFF"/>
            <path d="M117 131V145" stroke="#282828" stroke-width="1.5"/>
            <path d="M123 131V145" stroke="#282828" stroke-width="1.5"/>
            <path d="M147.861 135V126.273H151.134C151.804 126.273 152.366 126.398 152.821 126.648C153.278 126.898 153.624 127.241 153.857 127.679C154.092 128.114 154.21 128.608 154.21 129.162C154.21 129.722 154.092 130.219 153.857 130.653C153.621 131.088 153.273 131.43 152.812 131.68C152.352 131.928 151.786 132.051 151.112 132.051H148.943V130.751H150.899C151.291 130.751 151.612 130.683 151.862 130.547C152.112 130.411 152.297 130.223 152.416 129.984C152.538 129.746 152.599 129.472 152.599 129.162C152.599 128.852 152.538 128.58 152.416 128.344C152.297 128.108 152.111 127.925 151.858 127.794C151.608 127.661 151.286 127.594 150.891 127.594H149.442V135H147.861ZM157.292 135.132C156.877 135.132 156.503 135.058 156.171 134.911C155.841 134.76 155.58 134.538 155.387 134.246C155.196 133.953 155.101 133.592 155.101 133.163C155.101 132.794 155.169 132.489 155.306 132.247C155.442 132.006 155.628 131.812 155.864 131.668C156.1 131.523 156.365 131.413 156.661 131.339C156.959 131.263 157.267 131.207 157.586 131.173C157.969 131.134 158.28 131.098 158.519 131.067C158.758 131.033 158.931 130.982 159.039 130.913C159.15 130.842 159.205 130.733 159.205 130.585V130.56C159.205 130.239 159.11 129.99 158.919 129.814C158.729 129.638 158.455 129.55 158.097 129.55C157.719 129.55 157.419 129.632 157.198 129.797C156.979 129.962 156.831 130.156 156.755 130.381L155.314 130.176C155.428 129.778 155.615 129.446 155.877 129.179C156.138 128.909 156.458 128.707 156.836 128.574C157.213 128.438 157.631 128.369 158.088 128.369C158.404 128.369 158.718 128.406 159.03 128.48C159.343 128.554 159.628 128.676 159.887 128.847C160.145 129.014 160.353 129.243 160.509 129.533C160.668 129.822 160.748 130.185 160.748 130.619V135H159.265V134.101H159.213C159.12 134.283 158.988 134.453 158.817 134.612C158.65 134.768 158.438 134.895 158.182 134.991C157.929 135.085 157.633 135.132 157.292 135.132ZM157.692 133.999C158.002 133.999 158.27 133.937 158.498 133.815C158.725 133.69 158.9 133.526 159.022 133.321C159.147 133.116 159.209 132.893 159.209 132.652V131.881C159.161 131.92 159.079 131.957 158.962 131.991C158.848 132.026 158.721 132.055 158.579 132.081C158.436 132.107 158.296 132.129 158.157 132.149C158.017 132.169 157.897 132.186 157.794 132.2C157.564 132.232 157.358 132.283 157.177 132.354C156.995 132.425 156.851 132.524 156.746 132.652C156.641 132.777 156.588 132.939 156.588 133.138C156.588 133.422 156.692 133.636 156.9 133.781C157.107 133.926 157.371 133.999 157.692 133.999ZM166.481 132.247V128.455H168.023V135H166.527V133.837H166.459C166.312 134.203 166.069 134.503 165.731 134.736C165.395 134.969 164.982 135.085 164.491 135.085C164.062 135.085 163.682 134.99 163.353 134.8C163.026 134.607 162.77 134.327 162.586 133.96C162.401 133.591 162.309 133.145 162.309 132.622V128.455H163.851V132.384C163.851 132.798 163.965 133.128 164.192 133.372C164.42 133.616 164.718 133.739 165.087 133.739C165.314 133.739 165.535 133.683 165.748 133.572C165.961 133.462 166.135 133.297 166.272 133.078C166.411 132.857 166.481 132.58 166.481 132.247ZM174.793 130.185L173.387 130.338C173.347 130.196 173.277 130.062 173.178 129.938C173.081 129.812 172.95 129.712 172.786 129.635C172.621 129.558 172.419 129.52 172.181 129.52C171.86 129.52 171.59 129.589 171.371 129.729C171.155 129.868 171.048 130.048 171.051 130.27C171.048 130.46 171.118 130.615 171.26 130.734C171.405 130.854 171.644 130.952 171.976 131.028L173.093 131.267C173.712 131.401 174.172 131.612 174.473 131.902C174.777 132.192 174.931 132.571 174.933 133.04C174.931 133.452 174.81 133.815 174.571 134.131C174.335 134.443 174.007 134.687 173.587 134.864C173.166 135.04 172.683 135.128 172.138 135.128C171.337 135.128 170.692 134.96 170.203 134.625C169.715 134.287 169.423 133.817 169.33 133.214L170.834 133.07C170.902 133.365 171.047 133.588 171.269 133.739C171.49 133.889 171.779 133.964 172.134 133.964C172.5 133.964 172.794 133.889 173.016 133.739C173.24 133.588 173.352 133.402 173.352 133.18C173.352 132.993 173.28 132.838 173.135 132.716C172.993 132.594 172.771 132.5 172.47 132.435L171.354 132.2C170.726 132.07 170.262 131.849 169.96 131.54C169.659 131.227 169.51 130.832 169.513 130.355C169.51 129.952 169.619 129.602 169.841 129.307C170.066 129.009 170.377 128.778 170.774 128.616C171.175 128.452 171.637 128.369 172.159 128.369C172.926 128.369 173.53 128.533 173.97 128.859C174.414 129.186 174.688 129.628 174.793 130.185ZM179.113 135.128C178.457 135.128 177.89 134.991 177.413 134.719C176.938 134.443 176.573 134.054 176.318 133.551C176.062 133.045 175.934 132.45 175.934 131.766C175.934 131.092 176.062 130.501 176.318 129.993C176.576 129.482 176.937 129.084 177.4 128.8C177.863 128.513 178.407 128.369 179.032 128.369C179.436 128.369 179.816 128.435 180.174 128.565C180.535 128.693 180.853 128.892 181.129 129.162C181.407 129.432 181.626 129.776 181.785 130.193C181.944 130.608 182.024 131.102 182.024 131.676V132.149H176.659V131.109H180.545C180.542 130.814 180.478 130.551 180.353 130.321C180.228 130.088 180.053 129.905 179.829 129.771C179.607 129.638 179.349 129.571 179.053 129.571C178.738 129.571 178.461 129.648 178.223 129.801C177.984 129.952 177.798 130.151 177.664 130.398C177.534 130.642 177.467 130.911 177.464 131.203V132.111C177.464 132.491 177.534 132.818 177.673 133.091C177.812 133.361 178.007 133.568 178.257 133.713C178.507 133.855 178.799 133.926 179.134 133.926C179.359 133.926 179.562 133.895 179.744 133.832C179.926 133.767 180.083 133.672 180.217 133.547C180.35 133.422 180.451 133.267 180.519 133.082L181.96 133.244C181.869 133.625 181.696 133.957 181.44 134.241C181.187 134.523 180.863 134.741 180.468 134.898C180.073 135.051 179.622 135.128 179.113 135.128Z" fill="#282828"/>
            <rect opacity="0.1" x="147" y="143" width="18" height="8" rx="4" fill="#282828"/>
        </g>
        <g filter="url(#filter2_df_1490_50639)">
            <rect x="143" y="17" width="117" height="50" rx="18" fill="white"/>
            <rect x="161" y="24" width="36" height="36" rx="12" fill="#B5C5FF"/>
            <path d="M176 35V49" stroke="#282828" stroke-width="1.5"/>
            <path d="M182 35V49" stroke="#282828" stroke-width="1.5"/>
            <path d="M206.861 39V30.2727H210.134C210.804 30.2727 211.366 30.3977 211.821 30.6477C212.278 30.8977 212.624 31.2415 212.857 31.679C213.092 32.1136 213.21 32.608 213.21 33.1619C213.21 33.7216 213.092 34.2187 212.857 34.6534C212.621 35.0881 212.273 35.4304 211.812 35.6804C211.352 35.9276 210.786 36.0511 210.112 36.0511H207.943V34.7514H209.899C210.291 34.7514 210.612 34.6832 210.862 34.5469C211.112 34.4105 211.297 34.223 211.416 33.9844C211.538 33.7457 211.599 33.4716 211.599 33.1619C211.599 32.8523 211.538 32.5795 211.416 32.3438C211.297 32.108 211.111 31.9247 210.858 31.794C210.608 31.6605 210.286 31.5938 209.891 31.5938H208.442V39H206.861ZM216.292 39.1321C215.877 39.1321 215.503 39.0582 215.171 38.9105C214.841 38.7599 214.58 38.5384 214.387 38.2457C214.196 37.9531 214.101 37.5923 214.101 37.1634C214.101 36.794 214.169 36.4886 214.306 36.2472C214.442 36.0057 214.628 35.8125 214.864 35.6676C215.1 35.5227 215.365 35.4134 215.661 35.3395C215.959 35.2628 216.267 35.2074 216.586 35.1733C216.969 35.1335 217.28 35.098 217.519 35.0668C217.758 35.0327 217.931 34.9815 218.039 34.9134C218.15 34.8423 218.205 34.733 218.205 34.5852V34.5597C218.205 34.2386 218.11 33.9901 217.919 33.8139C217.729 33.6378 217.455 33.5497 217.097 33.5497C216.719 33.5497 216.419 33.6321 216.198 33.7969C215.979 33.9616 215.831 34.1562 215.755 34.3807L214.314 34.1761C214.428 33.7784 214.615 33.446 214.877 33.179C215.138 32.9091 215.458 32.7074 215.836 32.5739C216.213 32.4375 216.631 32.3693 217.088 32.3693C217.404 32.3693 217.718 32.4062 218.03 32.4801C218.343 32.554 218.628 32.6761 218.887 32.8466C219.145 33.0142 219.353 33.2429 219.509 33.5327C219.668 33.8224 219.748 34.1847 219.748 34.6193V39H218.265V38.1009H218.213C218.12 38.2827 217.988 38.4531 217.817 38.6122C217.65 38.7685 217.438 38.8949 217.182 38.9915C216.929 39.0852 216.633 39.1321 216.292 39.1321ZM216.692 37.9986C217.002 37.9986 217.27 37.9375 217.498 37.8153C217.725 37.6903 217.9 37.5256 218.022 37.321C218.147 37.1165 218.209 36.8935 218.209 36.652V35.8807C218.161 35.9205 218.079 35.9574 217.962 35.9915C217.848 36.0256 217.721 36.0554 217.579 36.081C217.436 36.1065 217.296 36.1293 217.157 36.1491C217.017 36.169 216.897 36.1861 216.794 36.2003C216.564 36.2315 216.358 36.2827 216.177 36.3537C215.995 36.4247 215.851 36.5241 215.746 36.652C215.641 36.777 215.588 36.9389 215.588 37.1378C215.588 37.4219 215.692 37.6364 215.9 37.7812C216.107 37.9261 216.371 37.9986 216.692 37.9986ZM225.481 36.2472V32.4545H227.023V39H225.527V37.8366H225.459C225.312 38.2031 225.069 38.5028 224.731 38.7358C224.395 38.9687 223.982 39.0852 223.491 39.0852C223.062 39.0852 222.682 38.9901 222.353 38.7997C222.026 38.6065 221.77 38.3267 221.586 37.9602C221.401 37.5909 221.309 37.1449 221.309 36.6222V32.4545H222.851V36.3835C222.851 36.7983 222.965 37.1278 223.192 37.3722C223.42 37.6165 223.718 37.7386 224.087 37.7386C224.314 37.7386 224.535 37.6832 224.748 37.5724C224.961 37.4616 225.135 37.2969 225.272 37.0781C225.411 36.8565 225.481 36.5795 225.481 36.2472ZM233.793 34.1847L232.387 34.3381C232.347 34.196 232.277 34.0625 232.178 33.9375C232.081 33.8125 231.95 33.7116 231.786 33.6349C231.621 33.5582 231.419 33.5199 231.181 33.5199C230.86 33.5199 230.59 33.5895 230.371 33.7287C230.155 33.8679 230.048 34.0483 230.051 34.2699C230.048 34.4602 230.118 34.6151 230.26 34.7344C230.405 34.8537 230.644 34.9517 230.976 35.0284L232.093 35.267C232.712 35.4006 233.172 35.6122 233.473 35.902C233.777 36.1918 233.931 36.571 233.933 37.0398C233.931 37.4517 233.81 37.8153 233.571 38.1307C233.335 38.4432 233.007 38.6875 232.587 38.8636C232.166 39.0398 231.683 39.1278 231.138 39.1278C230.337 39.1278 229.692 38.9602 229.203 38.625C228.715 38.2869 228.423 37.8168 228.33 37.2145L229.834 37.0696C229.902 37.3651 230.047 37.5881 230.269 37.7386C230.49 37.8892 230.779 37.9645 231.134 37.9645C231.5 37.9645 231.794 37.8892 232.016 37.7386C232.24 37.5881 232.352 37.402 232.352 37.1804C232.352 36.9929 232.28 36.8381 232.135 36.7159C231.993 36.5937 231.771 36.5 231.47 36.4347L230.354 36.2003C229.726 36.0696 229.262 35.8494 228.96 35.5398C228.659 35.2273 228.51 34.8324 228.513 34.3551C228.51 33.9517 228.619 33.6023 228.841 33.3068C229.066 33.0085 229.377 32.7784 229.774 32.6165C230.175 32.4517 230.637 32.3693 231.159 32.3693C231.926 32.3693 232.53 32.5327 232.97 32.8594C233.414 33.1861 233.688 33.6278 233.793 34.1847ZM238.113 39.1278C237.457 39.1278 236.89 38.9915 236.413 38.7188C235.938 38.4432 235.573 38.054 235.318 37.5511C235.062 37.0455 234.934 36.4503 234.934 35.7656C234.934 35.0923 235.062 34.5014 235.318 33.9929C235.576 33.4815 235.937 33.0838 236.4 32.7997C236.863 32.5128 237.407 32.3693 238.032 32.3693C238.436 32.3693 238.816 32.4347 239.174 32.5653C239.535 32.6932 239.853 32.892 240.129 33.1619C240.407 33.4318 240.626 33.7756 240.785 34.1932C240.944 34.608 241.024 35.1023 241.024 35.6761V36.1491H235.659V35.1094H239.545C239.542 34.8139 239.478 34.5511 239.353 34.321C239.228 34.0881 239.053 33.9048 238.829 33.7713C238.607 33.6378 238.349 33.571 238.053 33.571C237.738 33.571 237.461 33.6477 237.223 33.8011C236.984 33.9517 236.798 34.1506 236.664 34.3977C236.534 34.642 236.467 34.9105 236.464 35.2031V36.1108C236.464 36.4915 236.534 36.8182 236.673 37.0909C236.812 37.3608 237.007 37.5682 237.257 37.7131C237.507 37.8551 237.799 37.9261 238.134 37.9261C238.359 37.9261 238.562 37.8949 238.744 37.8324C238.926 37.767 239.083 37.6719 239.217 37.5469C239.35 37.4219 239.451 37.267 239.519 37.0824L240.96 37.2443C240.869 37.625 240.696 37.9574 240.44 38.2415C240.187 38.5227 239.863 38.7415 239.468 38.8977C239.073 39.0511 238.622 39.1278 238.113 39.1278Z" fill="#282828"/>
            <rect opacity="0.1" x="206" y="47" width="18" height="8" rx="4" fill="#282828"/>
        </g>
        <g filter="url(#filter3_d_1490_50639)">
            <rect x="202" y="113" width="99" height="48" rx="18" fill="white"/>
            <rect x="211" y="119" width="36" height="36" rx="12" fill="#FFEB80"/>
            <path fill-rule="evenodd" clip-rule="evenodd" d="M232.003 143.692C231.768 145.005 230.638 146 229.279 146C227.92 146 226.79 145.005 226.555 143.692H232.003Z" fill="#282828"/>
            <mask id="path-21-inside-1_1490_50639" fill="white">
                <path fill-rule="evenodd" clip-rule="evenodd" d="M229.278 128C228.259 128 227.432 128.827 227.432 129.846V130.152C225.62 130.771 224.191 132.279 223.723 134.221L222.106 140.924L220.97 141.358C220.214 141.648 220.42 142.77 221.23 142.77H229.278H237.325C238.135 142.77 238.342 141.648 237.585 141.358L236.449 140.924L234.833 134.221C234.364 132.28 232.936 130.772 231.125 130.153V129.846C231.125 128.827 230.298 128 229.278 128Z"/>
            </mask>
            <path d="M227.432 130.152L227.917 131.572L228.932 131.225V130.152H227.432ZM223.723 134.221L225.181 134.573V134.573L223.723 134.221ZM222.106 140.924L222.642 142.325L223.38 142.043L223.565 141.275L222.106 140.924ZM220.97 141.358L221.506 142.759H221.506L220.97 141.358ZM237.585 141.358L238.121 139.957L238.121 139.957L237.585 141.358ZM236.449 140.924L234.991 141.275L235.176 142.043L235.913 142.325L236.449 140.924ZM234.833 134.221L236.291 133.87L234.833 134.221ZM231.125 130.153H229.625V131.225L230.64 131.572L231.125 130.153ZM228.932 129.846C228.932 129.655 229.087 129.5 229.278 129.5V126.5C227.43 126.5 225.932 127.998 225.932 129.846H228.932ZM228.932 130.152V129.846H225.932V130.152H228.932ZM225.181 134.573C225.526 133.141 226.579 132.028 227.917 131.572L226.947 128.733C224.661 129.513 222.856 131.417 222.264 133.87L225.181 134.573ZM223.565 141.275L225.181 134.573L222.264 133.87L220.648 140.572L223.565 141.275ZM221.506 142.759L222.642 142.325L221.571 139.523L220.435 139.957L221.506 142.759ZM221.23 141.27C221.395 141.27 221.59 141.335 221.747 141.477C221.89 141.607 221.962 141.762 221.988 141.901C222.013 142.04 222.001 142.211 221.914 142.382C221.818 142.571 221.66 142.701 221.506 142.759L220.435 139.957C218.13 140.838 218.748 144.27 221.23 144.27V141.27ZM229.278 141.27H221.23V144.27H229.278V141.27ZM237.325 141.27H229.278V144.27H237.325V141.27ZM237.049 142.759C236.896 142.701 236.737 142.571 236.641 142.382C236.554 142.211 236.542 142.04 236.567 141.901C236.593 141.762 236.665 141.607 236.808 141.477C236.966 141.335 237.16 141.27 237.325 141.27V144.27C239.808 144.27 240.425 140.838 238.121 139.957L237.049 142.759ZM235.913 142.325L237.049 142.759L238.121 139.957L236.984 139.523L235.913 142.325ZM233.374 134.573L234.991 141.275L237.907 140.572L236.291 133.87L233.374 134.573ZM230.64 131.572C231.976 132.029 233.029 133.142 233.374 134.573L236.291 133.87C235.699 131.417 233.895 129.514 231.61 128.733L230.64 131.572ZM229.625 129.846V130.153H232.625V129.846H229.625ZM229.278 129.5C229.47 129.5 229.625 129.655 229.625 129.846H232.625C232.625 127.998 231.126 126.5 229.278 126.5V129.5Z" fill="#282828" mask="url(#path-21-inside-1_1490_50639)"/>
            <path d="M264.033 132.273H262.46V138.222H262.384L258.276 132.273H256.861V141H258.442V135.055H258.514L262.626 141H264.033V132.273ZM268.552 141.128C270.47 141.128 271.689 139.777 271.689 137.753C271.689 135.724 270.47 134.369 268.552 134.369C266.635 134.369 265.416 135.724 265.416 137.753C265.416 139.777 266.635 141.128 268.552 141.128ZM268.561 139.892C267.5 139.892 266.98 138.946 266.98 137.749C266.98 136.551 267.5 135.592 268.561 135.592C269.605 135.592 270.125 136.551 270.125 137.749C270.125 138.946 269.605 139.892 268.561 139.892ZM276.276 134.455H274.985V132.886H273.443V134.455H272.514V135.648H273.443V139.287C273.434 140.518 274.329 141.124 275.488 141.089C275.927 141.077 276.23 140.991 276.396 140.936L276.136 139.73C276.051 139.751 275.876 139.79 275.684 139.79C275.296 139.79 274.985 139.653 274.985 139.031V135.648H276.276V134.455ZM277.577 141H279.119V134.455H277.577V141ZM278.352 133.526C278.842 133.526 279.243 133.151 279.243 132.69C279.243 132.226 278.842 131.851 278.352 131.851C277.858 131.851 277.457 132.226 277.457 132.69C277.457 133.151 277.858 133.526 278.352 133.526ZM284.031 134.455H282.671V133.939C282.671 133.428 282.884 133.142 283.46 133.142C283.703 133.142 283.907 133.197 284.035 133.236L284.346 132.043C284.146 131.974 283.707 131.864 283.174 131.864C282.036 131.864 281.129 132.516 281.129 133.837V134.455H280.161V135.648H281.129V141H282.671V135.648H284.031V134.455ZM286.208 143.455C287.409 143.455 288.104 142.837 288.475 141.793L291.104 134.463L289.455 134.455L287.942 139.398H287.874L286.365 134.455H284.729L287.103 141.136L286.97 141.49C286.685 142.236 286.233 142.287 285.56 142.091L285.202 143.293C285.411 143.378 285.786 143.455 286.208 143.455Z" fill="#282828"/>
        </g>
        <g filter="url(#filter4_d_1490_50639)">
            <rect x="184" y="46" width="135" height="48" rx="18" fill="white"/>
            <rect x="193" y="52" width="36" height="36" rx="12" fill="#C9EBFF"/>
            <path d="M208 63H217C217.552 63 218 63.4477 218 64V73" stroke="#282828" stroke-width="1.5" stroke-linecap="round" stroke-linejoin="round"/>
            <path d="M217 64L204 77" stroke="#282828" stroke-width="1.5" stroke-linecap="round" stroke-linejoin="round"/>
            <path d="M240.442 65.2727H238.861V74H240.442V65.2727ZM243.638 70.1648C243.638 69.2188 244.209 68.6733 245.023 68.6733C245.82 68.6733 246.297 69.1974 246.297 70.071V74H247.84V69.8324C247.844 68.2642 246.949 67.3693 245.598 67.3693C244.618 67.3693 243.945 67.8381 243.647 68.5668H243.57V67.4545H242.096V74H243.638V70.1648ZM252.273 74.1278C253.918 74.1278 254.966 73.152 255.077 71.7628H253.603C253.471 72.4659 252.964 72.8707 252.286 72.8707C251.323 72.8707 250.701 72.0653 250.701 70.7273C250.701 69.4062 251.336 68.6136 252.286 68.6136C253.027 68.6136 253.483 69.0909 253.603 69.7216H255.077C254.971 68.3026 253.863 67.3693 252.265 67.3693C250.347 67.3693 249.137 68.7543 249.137 70.7528C249.137 72.7344 250.317 74.1278 252.273 74.1278ZM256.354 74H257.896V70.152C257.896 69.321 258.523 68.733 259.371 68.733C259.631 68.733 259.955 68.7798 260.087 68.8224V67.4034C259.946 67.3778 259.703 67.3608 259.533 67.3608C258.783 67.3608 258.156 67.7869 257.918 68.5455H257.85V67.4545H256.354V74ZM263.75 74.1278C265.275 74.1278 266.324 73.3821 266.596 72.2443L265.156 72.0824C264.947 72.6364 264.436 72.9261 263.771 72.9261C262.774 72.9261 262.114 72.2699 262.101 71.1491H266.66V70.6761C266.66 68.3793 265.28 67.3693 263.669 67.3693C261.794 67.3693 260.571 68.7457 260.571 70.7656C260.571 72.8196 261.777 74.1278 263.75 74.1278ZM262.105 70.1094C262.152 69.2741 262.77 68.571 263.69 68.571C264.577 68.571 265.173 69.2188 265.182 70.1094H262.105ZM269.859 74.1321C270.886 74.1321 271.5 73.6506 271.781 73.1009H271.832V74H273.315V69.6193C273.315 67.8892 271.904 67.3693 270.656 67.3693C269.279 67.3693 268.223 67.983 267.882 69.1761L269.322 69.3807C269.475 68.9332 269.91 68.5497 270.664 68.5497C271.38 68.5497 271.772 68.9162 271.772 69.5597V69.5852C271.772 70.0284 271.308 70.0497 270.153 70.1733C268.883 70.3097 267.669 70.6889 267.669 72.1634C267.669 73.4503 268.61 74.1321 269.859 74.1321ZM270.26 72.9986C269.616 72.9986 269.156 72.7045 269.156 72.1378C269.156 71.5455 269.671 71.2983 270.362 71.2003C270.767 71.1449 271.576 71.0426 271.777 70.8807V71.652C271.777 72.3807 271.188 72.9986 270.26 72.9986ZM280.049 69.1847C279.836 68.0767 278.95 67.3693 277.416 67.3693C275.839 67.3693 274.765 68.1449 274.77 69.3551C274.765 70.3097 275.353 70.9403 276.61 71.2003L277.727 71.4347C278.328 71.5668 278.609 71.8097 278.609 72.1804C278.609 72.6278 278.123 72.9645 277.39 72.9645C276.683 72.9645 276.223 72.6577 276.091 72.0696L274.586 72.2145C274.778 73.4162 275.788 74.1278 277.395 74.1278C279.031 74.1278 280.186 73.2798 280.19 72.0398C280.186 71.1065 279.585 70.5355 278.349 70.267L277.233 70.0284C276.568 69.8793 276.304 69.6491 276.308 69.2699C276.304 68.8267 276.794 68.5199 277.437 68.5199C278.149 68.5199 278.524 68.9077 278.643 69.3381L280.049 69.1847ZM284.37 74.1278C285.895 74.1278 286.944 73.3821 287.216 72.2443L285.776 72.0824C285.567 72.6364 285.056 72.9261 284.391 72.9261C283.394 72.9261 282.733 72.2699 282.721 71.1491H287.28V70.6761C287.28 68.3793 285.9 67.3693 284.289 67.3693C282.414 67.3693 281.191 68.7457 281.191 70.7656C281.191 72.8196 282.397 74.1278 284.37 74.1278ZM282.725 70.1094C282.772 69.2741 283.39 68.571 284.31 68.571C285.196 68.571 285.793 69.2188 285.802 70.1094H282.725ZM291.65 74H293.167V72.9688H293.257C293.499 73.446 294.007 74.1151 295.132 74.1151C296.674 74.1151 297.829 72.892 297.829 70.7358C297.829 68.554 296.64 67.3693 295.127 67.3693C293.972 67.3693 293.491 68.0639 293.257 68.5369H293.193V65.2727H291.65V74ZM293.163 70.7273C293.163 69.4574 293.708 68.6349 294.701 68.6349C295.728 68.6349 296.257 69.5085 296.257 70.7273C296.257 71.9545 295.72 72.8494 294.701 72.8494C293.717 72.8494 293.163 71.9972 293.163 70.7273ZM299.15 74H300.693V67.4545H299.15V74ZM299.926 66.5256C300.416 66.5256 300.817 66.1506 300.817 65.6903C300.817 65.2259 300.416 64.8509 299.926 64.8509C299.432 64.8509 299.031 65.2259 299.031 65.6903C299.031 66.1506 299.432 66.5256 299.926 66.5256ZM304.718 74.1151C305.843 74.1151 306.35 73.446 306.593 72.9688H306.687V74H308.204V65.2727H306.657V68.5369H306.593C306.359 68.0639 305.877 67.3693 304.723 67.3693C303.21 67.3693 302.021 68.554 302.021 70.7358C302.021 72.892 303.176 74.1151 304.718 74.1151ZM305.149 72.8494C304.13 72.8494 303.593 71.9545 303.593 70.7273C303.593 69.5085 304.122 68.6349 305.149 68.6349C306.142 68.6349 306.687 69.4574 306.687 70.7273C306.687 71.9972 306.133 72.8494 305.149 72.8494Z" fill="#282828"/>
        </g>
        <g filter="url(#filter5_d_1490_50639)">
            <rect x="110" y="80" width="119" height="48" rx="18" fill="white"/>
            <rect x="119" y="86" width="36" height="36" rx="12" fill="#CECDFF"/>
            <rect x="130" y="101" width="10" height="10" rx="3" stroke="#282828" stroke-width="1.5"/>
            <path d="M134 97H141C142.657 97 144 98.3431 144 100V107" stroke="#282828" stroke-width="1.5"/>
            <path d="M167.818 108C170.477 108 172.054 106.355 172.054 103.628C172.054 100.909 170.477 99.2727 167.878 99.2727H164.861V108H167.818ZM166.442 106.632V100.641H167.788C169.561 100.641 170.486 101.629 170.486 103.628C170.486 105.635 169.561 106.632 167.741 106.632H166.442ZM177.67 105.247C177.67 106.244 176.958 106.739 176.276 106.739C175.535 106.739 175.041 106.214 175.041 105.384V101.455H173.498V105.622C173.498 107.195 174.393 108.085 175.68 108.085C176.66 108.085 177.35 107.57 177.648 106.837H177.717V108H179.212V101.455H177.67V105.247ZM180.809 110.455H182.351V106.969H182.415C182.658 107.446 183.165 108.115 184.29 108.115C185.833 108.115 186.988 106.892 186.988 104.736C186.988 102.554 185.799 101.369 184.286 101.369C183.131 101.369 182.65 102.064 182.415 102.537H182.326V101.455H180.809V110.455ZM182.321 104.727C182.321 103.457 182.867 102.635 183.86 102.635C184.887 102.635 185.415 103.509 185.415 104.727C185.415 105.955 184.878 106.849 183.86 106.849C182.875 106.849 182.321 105.997 182.321 104.727ZM189.861 99.2727H188.319V108H189.861V99.2727ZM191.458 108H193V101.455H191.458V108ZM192.233 100.526C192.723 100.526 193.124 100.151 193.124 99.6903C193.124 99.2259 192.723 98.8509 192.233 98.8509C191.739 98.8509 191.338 99.2259 191.338 99.6903C191.338 100.151 191.739 100.526 192.233 100.526ZM197.452 108.128C199.097 108.128 200.145 107.152 200.256 105.763H198.781C198.649 106.466 198.142 106.871 197.464 106.871C196.501 106.871 195.879 106.065 195.879 104.727C195.879 103.406 196.514 102.614 197.464 102.614C198.206 102.614 198.662 103.091 198.781 103.722H200.256C200.149 102.303 199.041 101.369 197.443 101.369C195.525 101.369 194.315 102.754 194.315 104.753C194.315 106.734 195.496 108.128 197.452 108.128ZM203.416 108.132C204.443 108.132 205.056 107.651 205.338 107.101H205.389V108H206.872V103.619C206.872 101.889 205.461 101.369 204.213 101.369C202.836 101.369 201.779 101.983 201.439 103.176L202.879 103.381C203.032 102.933 203.467 102.55 204.221 102.55C204.937 102.55 205.329 102.916 205.329 103.56V103.585C205.329 104.028 204.865 104.05 203.71 104.173C202.44 104.31 201.225 104.689 201.225 106.163C201.225 107.45 202.167 108.132 203.416 108.132ZM203.816 106.999C203.173 106.999 202.713 106.705 202.713 106.138C202.713 105.545 203.228 105.298 203.919 105.2C204.323 105.145 205.133 105.043 205.333 104.881V105.652C205.333 106.381 204.745 106.999 203.816 106.999ZM211.701 101.455H210.41V99.8864H208.868V101.455H207.939V102.648H208.868V106.287C208.859 107.518 209.754 108.124 210.913 108.089C211.352 108.077 211.655 107.991 211.821 107.936L211.561 106.73C211.476 106.751 211.301 106.79 211.109 106.79C210.721 106.79 210.41 106.653 210.41 106.031V102.648H211.701V101.455ZM215.829 108.128C217.355 108.128 218.403 107.382 218.676 106.244L217.235 106.082C217.026 106.636 216.515 106.926 215.85 106.926C214.853 106.926 214.193 106.27 214.18 105.149H218.739V104.676C218.739 102.379 217.359 101.369 215.748 101.369C213.873 101.369 212.65 102.746 212.65 104.766C212.65 106.82 213.856 108.128 215.829 108.128ZM214.184 104.109C214.231 103.274 214.849 102.571 215.769 102.571C216.656 102.571 217.252 103.219 217.261 104.109H214.184Z" fill="#282828"/>
        </g>
    </g>
    <defs>
        <filter id="filter0_df_1490_50639" x="238" y="62" width="146" height="86" filterUnits="userSpaceOnUse" color-interpolation-filters="sRGB">
            <feFlood flood-opacity="0" result="BackgroundImageFix"/>
            <feColorMatrix in="SourceAlpha" type="matrix" values="0 0 0 0 0 0 0 0 0 0 0 0 0 0 0 0 0 0 127 0" result="hardAlpha"/>
            <feOffset dy="4"/>
            <feGaussianBlur stdDeviation="2"/>
            <feComposite in2="hardAlpha" operator="out"/>
            <feColorMatrix type="matrix" values="0 0 0 0 0 0 0 0 0 0 0 0 0 0 0 0 0 0 0.25 0"/>
            <feBlend mode="normal" in2="BackgroundImageFix" result="effect1_dropShadow_1490_50639"/>
            <feBlend mode="normal" in="SourceGraphic" in2="effect1_dropShadow_1490_50639" result="shape"/>
            <feGaussianBlur stdDeviation="9" result="effect2_foregroundBlur_1490_50639"/>
        </filter>
        <filter id="filter1_df_1490_50639" x="66" y="95" width="153" height="86" filterUnits="userSpaceOnUse" color-interpolation-filters="sRGB">
            <feFlood flood-opacity="0" result="BackgroundImageFix"/>
            <feColorMatrix in="SourceAlpha" type="matrix" values="0 0 0 0 0 0 0 0 0 0 0 0 0 0 0 0 0 0 127 0" result="hardAlpha"/>
            <feOffset dy="4"/>
            <feGaussianBlur stdDeviation="2"/>
            <feComposite in2="hardAlpha" operator="out"/>
            <feColorMatrix type="matrix" values="0 0 0 0 0 0 0 0 0 0 0 0 0 0 0 0 0 0 0.25 0"/>
            <feBlend mode="normal" in2="BackgroundImageFix" result="effect1_dropShadow_1490_50639"/>
            <feBlend mode="normal" in="SourceGraphic" in2="effect1_dropShadow_1490_50639" result="shape"/>
            <feGaussianBlur stdDeviation="9" result="effect2_foregroundBlur_1490_50639"/>
        </filter>
        <filter id="filter2_df_1490_50639" x="125" y="-1" width="153" height="86" filterUnits="userSpaceOnUse" color-interpolation-filters="sRGB">
            <feFlood flood-opacity="0" result="BackgroundImageFix"/>
            <feColorMatrix in="SourceAlpha" type="matrix" values="0 0 0 0 0 0 0 0 0 0 0 0 0 0 0 0 0 0 127 0" result="hardAlpha"/>
            <feOffset dy="4"/>
            <feGaussianBlur stdDeviation="2"/>
            <feComposite in2="hardAlpha" operator="out"/>
            <feColorMatrix type="matrix" values="0 0 0 0 0 0 0 0 0 0 0 0 0 0 0 0 0 0 0.25 0"/>
            <feBlend mode="normal" in2="BackgroundImageFix" result="effect1_dropShadow_1490_50639"/>
            <feBlend mode="normal" in="SourceGraphic" in2="effect1_dropShadow_1490_50639" result="shape"/>
            <feGaussianBlur stdDeviation="9" result="effect2_foregroundBlur_1490_50639"/>
        </filter>
        <filter id="filter3_d_1490_50639" x="182" y="96" width="139" height="88" filterUnits="userSpaceOnUse" color-interpolation-filters="sRGB">
            <feFlood flood-opacity="0" result="BackgroundImageFix"/>
            <feColorMatrix in="SourceAlpha" type="matrix" values="0 0 0 0 0 0 0 0 0 0 0 0 0 0 0 0 0 0 127 0" result="hardAlpha"/>
            <feOffset dy="3"/>
            <feGaussianBlur stdDeviation="10"/>
            <feColorMatrix type="matrix" values="0 0 0 0 0 0 0 0 0 0 0 0 0 0 0 0 0 0 0.12 0"/>
            <feBlend mode="normal" in2="BackgroundImageFix" result="effect1_dropShadow_1490_50639"/>
            <feBlend mode="normal" in="SourceGraphic" in2="effect1_dropShadow_1490_50639" result="shape"/>
        </filter>
        <filter id="filter4_d_1490_50639" x="164" y="29" width="175" height="88" filterUnits="userSpaceOnUse" color-interpolation-filters="sRGB">
            <feFlood flood-opacity="0" result="BackgroundImageFix"/>
            <feColorMatrix in="SourceAlpha" type="matrix" values="0 0 0 0 0 0 0 0 0 0 0 0 0 0 0 0 0 0 127 0" result="hardAlpha"/>
            <feOffset dy="3"/>
            <feGaussianBlur stdDeviation="10"/>
            <feColorMatrix type="matrix" values="0 0 0 0 0 0 0 0 0 0 0 0 0 0 0 0 0 0 0.12 0"/>
            <feBlend mode="normal" in2="BackgroundImageFix" result="effect1_dropShadow_1490_50639"/>
            <feBlend mode="normal" in="SourceGraphic" in2="effect1_dropShadow_1490_50639" result="shape"/>
        </filter>
        <filter id="filter5_d_1490_50639" x="90" y="63" width="159" height="88" filterUnits="userSpaceOnUse" color-interpolation-filters="sRGB">
            <feFlood flood-opacity="0" result="BackgroundImageFix"/>
            <feColorMatrix in="SourceAlpha" type="matrix" values="0 0 0 0 0 0 0 0 0 0 0 0 0 0 0 0 0 0 127 0" result="hardAlpha"/>
            <feOffset dy="3"/>
            <feGaussianBlur stdDeviation="10"/>
            <feColorMatrix type="matrix" values="0 0 0 0 0 0 0 0 0 0 0 0 0 0 0 0 0 0 0.12 0"/>
            <feBlend mode="normal" in2="BackgroundImageFix" result="effect1_dropShadow_1490_50639"/>
            <feBlend mode="normal" in="SourceGraphic" in2="effect1_dropShadow_1490_50639" result="shape"/>
        </filter>
        <clipPath id="clip0_1490_50639">
            <rect width="450" height="180" fill="white"/>
        </clipPath>
    </defs>
</svg>