<svg width="418" height="203" viewBox="0 0 418 203" fill="none" xmlns="http://www.w3.org/2000/svg">
<g clip-path="url(#clip0_1272_49808)">
<rect width="418" height="203" fill="white"/>
<g filter="url(#filter0_d_1272_49808)">
<rect x="141" y="12" width="150" height="165" rx="18" fill="white"/>
</g>
<circle opacity="0.5" cx="216" cy="109" r="50" fill="#734EDE"/>
<path d="M216 59C222.566 59 229.068 60.2933 235.134 62.806C241.2 65.3188 246.712 69.0017 251.355 73.6447C255.998 78.2876 259.681 83.7996 262.194 89.8658C264.707 95.9321 266 102.434 266 109C266 115.566 264.707 122.068 262.194 128.134C259.681 134.2 255.998 139.712 251.355 144.355C246.712 148.998 241.2 152.681 235.134 155.194C229.068 157.707 222.566 159 216 159L216 109L216 59Z" fill="#734EDE"/>
<path opacity="0.4" d="M172.699 84C177.087 76.399 183.399 70.0871 191 65.6987C198.601 61.3103 207.223 59 216 59L216 109L172.699 84Z" fill="#734EDE"/>
<circle cx="216.505" cy="109.505" r="38.3838" fill="white"/>
<path d="M196.205 115.394H203.545V114.144H198.136V114.053L200.75 111.257C202.75 109.115 203.341 108.115 203.341 106.825C203.341 105.03 201.886 103.598 199.841 103.598C197.801 103.598 196.25 104.984 196.25 107.03H197.591C197.591 105.706 198.449 104.825 199.795 104.825C201.057 104.825 202.023 105.598 202.023 106.825C202.023 107.899 201.392 108.695 200.045 110.166L196.205 114.371V115.394ZM207.735 113.803H206.28L206.212 114.439C206.047 115.979 205.723 117.513 205.576 118.234H206.598C206.871 117.462 207.451 115.712 207.644 114.416L207.735 113.803ZM213.418 115.553C215.634 115.553 217.259 113.916 217.259 111.689C217.259 109.433 215.691 107.78 213.555 107.78C212.771 107.78 212.009 108.058 211.532 108.439H211.464L211.873 105.007H216.737V103.757H210.691L209.987 109.484L211.305 109.644C211.788 109.297 212.612 109.047 213.328 109.053C214.81 109.064 215.896 110.189 215.896 111.712C215.896 113.206 214.85 114.303 213.418 114.303C212.225 114.303 211.276 113.536 211.168 112.484H209.805C209.89 114.257 211.418 115.553 213.418 115.553ZM219.064 113.007H224.541V115.394H225.882V113.007H227.473V111.757H225.882V103.757H224.177L219.064 111.848V113.007ZM224.541 111.757H220.586V111.666L224.45 105.553H224.541V111.757ZM233.354 115.553C235.61 115.553 237.286 114.138 237.286 112.234C237.286 110.757 236.411 109.683 234.945 109.439V109.348C236.121 108.99 236.854 108.024 236.854 106.712C236.854 105.064 235.553 103.598 233.399 103.598C231.388 103.598 229.717 104.837 229.649 106.666H231.013C231.064 105.507 232.166 104.825 233.377 104.825C234.661 104.825 235.49 105.604 235.49 106.78C235.49 108.007 234.53 108.803 233.149 108.803H232.217V110.053H233.149C234.916 110.053 235.899 110.95 235.899 112.234C235.899 113.467 234.825 114.303 233.331 114.303C231.985 114.303 230.916 113.609 230.831 112.484H229.399C229.485 114.314 231.098 115.553 233.354 115.553Z" fill="#282828"/>
<path d="M153.861 37H155.442V34.0511H157.112C159.128 34.0511 160.21 32.8409 160.21 31.1619C160.21 29.4957 159.141 28.2727 157.134 28.2727H153.861V37ZM155.442 32.7514V29.5938H156.891C158.075 29.5938 158.599 30.233 158.599 31.1619C158.599 32.0909 158.075 32.7514 156.899 32.7514H155.442ZM165.697 34.2472C165.697 35.2443 164.985 35.7386 164.304 35.7386C163.562 35.7386 163.068 35.2145 163.068 34.3835V30.4545H161.525V34.6222C161.525 36.1946 162.42 37.0852 163.707 37.0852C164.687 37.0852 165.378 36.5696 165.676 35.8366H165.744V37H167.24V30.4545H165.697V34.2472ZM168.836 37H170.379V33.152C170.379 32.321 171.005 31.733 171.853 31.733C172.113 31.733 172.437 31.7798 172.569 31.8224V30.4034C172.428 30.3778 172.185 30.3608 172.015 30.3608C171.265 30.3608 170.639 30.7869 170.4 31.5455H170.332V30.4545H168.836V37ZM176.189 37.1278C177.834 37.1278 178.883 36.152 178.993 34.7628H177.519C177.387 35.4659 176.88 35.8707 176.202 35.8707C175.239 35.8707 174.617 35.0653 174.617 33.7273C174.617 32.4062 175.252 31.6136 176.202 31.6136C176.944 31.6136 177.4 32.0909 177.519 32.7216H178.993C178.887 31.3026 177.779 30.3693 176.181 30.3693C174.263 30.3693 173.053 31.7543 173.053 33.7528C173.053 35.7344 174.233 37.1278 176.189 37.1278ZM181.813 33.1648C181.813 32.2188 182.401 31.6733 183.228 31.6733C184.037 31.6733 184.514 32.1889 184.514 33.071V37H186.057V32.8324C186.057 31.2514 185.162 30.3693 183.803 30.3693C182.797 30.3693 182.158 30.8253 181.855 31.5668H181.779V28.2727H180.27V37H181.813V33.1648ZM189.523 37.1321C190.55 37.1321 191.164 36.6506 191.445 36.1009H191.496V37H192.979V32.6193C192.979 30.8892 191.568 30.3693 190.32 30.3693C188.943 30.3693 187.887 30.983 187.546 32.1761L188.986 32.3807C189.139 31.9332 189.574 31.5497 190.328 31.5497C191.044 31.5497 191.436 31.9162 191.436 32.5597V32.5852C191.436 33.0284 190.972 33.0497 189.817 33.1733C188.547 33.3097 187.333 33.6889 187.333 35.1634C187.333 36.4503 188.274 37.1321 189.523 37.1321ZM189.924 35.9986C189.28 35.9986 188.82 35.7045 188.82 35.1378C188.82 34.5455 189.336 34.2983 190.026 34.2003C190.431 34.1449 191.24 34.0426 191.441 33.8807V34.652C191.441 35.3807 190.853 35.9986 189.924 35.9986ZM199.713 32.1847C199.5 31.0767 198.614 30.3693 197.08 30.3693C195.503 30.3693 194.429 31.1449 194.434 32.3551C194.429 33.3097 195.017 33.9403 196.274 34.2003L197.391 34.4347C197.992 34.5668 198.273 34.8097 198.273 35.1804C198.273 35.6278 197.787 35.9645 197.054 35.9645C196.347 35.9645 195.887 35.6577 195.755 35.0696L194.25 35.2145C194.442 36.4162 195.452 37.1278 197.059 37.1278C198.695 37.1278 199.85 36.2798 199.854 35.0398C199.85 34.1065 199.249 33.5355 198.013 33.267L196.897 33.0284C196.232 32.8793 195.968 32.6491 195.972 32.2699C195.968 31.8267 196.458 31.5199 197.101 31.5199C197.813 31.5199 198.188 31.9077 198.307 32.3381L199.713 32.1847ZM204.034 37.1278C205.559 37.1278 206.608 36.3821 206.88 35.2443L205.44 35.0824C205.231 35.6364 204.72 35.9261 204.055 35.9261C203.058 35.9261 202.397 35.2699 202.385 34.1491H206.944V33.6761C206.944 31.3793 205.564 30.3693 203.953 30.3693C202.078 30.3693 200.855 31.7457 200.855 33.7656C200.855 35.8196 202.061 37.1278 204.034 37.1278ZM202.389 33.1094C202.436 32.2741 203.054 31.571 203.974 31.571C204.86 31.571 205.457 32.2188 205.466 33.1094H202.389ZM213.433 32.1847C213.22 31.0767 212.333 30.3693 210.799 30.3693C209.222 30.3693 208.149 31.1449 208.153 32.3551C208.149 33.3097 208.737 33.9403 209.994 34.2003L211.11 34.4347C211.711 34.5668 211.992 34.8097 211.992 35.1804C211.992 35.6278 211.506 35.9645 210.774 35.9645C210.066 35.9645 209.606 35.6577 209.474 35.0696L207.97 35.2145C208.161 36.4162 209.171 37.1278 210.778 37.1278C212.414 37.1278 213.569 36.2798 213.573 35.0398C213.569 34.1065 212.968 33.5355 211.732 33.267L210.616 33.0284C209.951 32.8793 209.687 32.6491 209.691 32.2699C209.687 31.8267 210.177 31.5199 210.82 31.5199C211.532 31.5199 211.907 31.9077 212.026 32.3381L213.433 32.1847Z" fill="#141414"/>
<rect opacity="0.1" x="153" y="45" width="40" height="8" rx="4" fill="#282828"/>
<g filter="url(#filter1_d_1272_49808)">
<rect x="19" y="54" width="110" height="80" rx="18" fill="white"/>
</g>
<path d="M117 99.7149L113.663 98.2322C113.339 98.0883 112.964 98.1264 112.675 98.3324L106.654 102.636C106.517 102.734 106.357 102.796 106.19 102.816L98.946 103.678C98.7384 103.703 98.5438 103.792 98.3895 103.933L92.6029 109.223C92.2526 109.543 91.7255 109.573 91.3412 109.294L84.3254 104.208C83.9329 103.924 83.3928 103.962 83.044 104.298L75.8685 111.225C75.6451 111.44 75.3343 111.54 75.0273 111.494L63.3375 109.76C63.044 109.717 62.7463 109.806 62.5249 110.004L56.0638 115.77C55.8037 116.002 55.4415 116.082 55.1079 115.981L46.8993 113.492C46.4421 113.354 45.9508 113.558 45.7264 113.979L42.5714 119.909C42.2725 120.471 41.5319 120.614 41.0449 120.204L30.9995 111.754" stroke="#23CE51" stroke-width="1.5" stroke-linecap="round" stroke-linejoin="round"/>
<path d="M93.9072 76.1193C95.7737 76.1193 97.133 75.0497 97.1288 73.5753C97.133 72.4844 96.4512 71.7003 95.2282 71.5256V71.4574C96.1742 71.2528 96.8092 70.5497 96.8049 69.5696C96.8092 68.2401 95.6756 67.1534 93.9328 67.1534C92.2367 67.1534 90.9242 68.1634 90.8901 69.625H92.4114C92.437 68.892 93.1188 68.4361 93.9242 68.4361C94.7381 68.4361 95.2793 68.9304 95.2751 69.6634C95.2793 70.4261 94.6487 70.9332 93.7453 70.9332H92.9739V72.152H93.7453C94.8489 72.152 95.5052 72.706 95.5009 73.4943C95.5052 74.2656 94.8362 74.794 93.9029 74.794C93.0251 74.794 92.3475 74.3381 92.3092 73.6264H90.7069C90.7495 75.1009 92.0663 76.1193 93.9072 76.1193ZM99.311 76.0938C99.8138 76.0938 100.244 75.6761 100.249 75.1562C100.244 74.6449 99.8138 74.2273 99.311 74.2273C98.7911 74.2273 98.3692 74.6449 98.3735 75.1562C98.3692 75.6761 98.7911 76.0938 99.311 76.0938ZM104.673 76.1193C106.54 76.1193 107.899 75.0497 107.895 73.5753C107.899 72.4844 107.217 71.7003 105.994 71.5256V71.4574C106.94 71.2528 107.575 70.5497 107.571 69.5696C107.575 68.2401 106.442 67.1534 104.699 67.1534C103.003 67.1534 101.69 68.1634 101.656 69.625H103.178C103.203 68.892 103.885 68.4361 104.69 68.4361C105.504 68.4361 106.045 68.9304 106.041 69.6634C106.045 70.4261 105.415 70.9332 104.511 70.9332H103.74V72.152H104.511C105.615 72.152 106.271 72.706 106.267 73.4943C106.271 74.2656 105.602 74.794 104.669 74.794C103.791 74.794 103.114 74.3381 103.075 73.6264H101.473C101.516 75.1009 102.832 76.1193 104.673 76.1193ZM109.368 76H115.351V74.679H111.549V74.6193L113.054 73.0895C114.75 71.4616 115.218 70.669 115.218 69.6847C115.218 68.223 114.03 67.1534 112.274 67.1534C110.544 67.1534 109.316 68.2273 109.316 69.8849H110.821C110.821 68.9943 111.383 68.4361 112.253 68.4361C113.083 68.4361 113.701 68.9432 113.701 69.7656C113.701 70.4943 113.258 71.0142 112.397 71.8878L109.368 74.858V76Z" fill="#141414"/>
<path d="M83.0918 76H84.3617V69.6037L86.7864 72.0284L87.6558 71.1506L83.7268 67.2216L79.7893 71.1506L80.6756 72.0284L83.0918 69.6037V76Z" fill="#23CE51"/>
<path d="M31.8608 76H33.4418V72.804H35.0526L36.7656 76H38.5298L36.642 72.5398C37.669 72.1264 38.2102 71.2486 38.2102 70.0639C38.2102 68.3977 37.1364 67.2727 35.1335 67.2727H31.8608V76ZM33.4418 71.4915V68.5938H34.8906C36.071 68.5938 36.5994 69.1349 36.5994 70.0639C36.5994 70.9929 36.071 71.4915 34.8991 71.4915H33.4418ZM47.4738 71.6364C47.4738 68.8153 45.7522 67.1534 43.4638 67.1534C41.1712 67.1534 39.4539 68.8153 39.4539 71.6364C39.4539 74.4531 41.1712 76.1193 43.4638 76.1193C45.7522 76.1193 47.4738 74.4574 47.4738 71.6364ZM45.8843 71.6364C45.8843 73.6222 44.8871 74.7003 43.4638 74.7003C42.0448 74.7003 41.0434 73.6222 41.0434 71.6364C41.0434 69.6506 42.0448 68.5724 43.4638 68.5724C44.8871 68.5724 45.8843 69.6506 45.8843 71.6364ZM49.6304 76L50.3506 73.848H53.6319L54.3563 76H56.0438L52.9671 67.2727H51.0154L47.9429 76H49.6304ZM50.7767 72.5781L51.9571 69.0625H52.0253L53.2057 72.5781H50.7767ZM61.8056 69.6719H63.3269C63.297 68.1974 62.0399 67.1534 60.182 67.1534C58.3496 67.1534 56.9732 68.1847 56.9774 69.7273C56.9774 70.9801 57.8681 71.7003 59.3041 72.071L60.297 72.3267C61.2388 72.5653 61.861 72.8594 61.8652 73.5369C61.861 74.2827 61.1536 74.7812 60.1223 74.7812C59.1337 74.7812 58.3666 74.3381 58.3027 73.4219H56.7473C56.8113 75.1562 58.1024 76.1321 60.1351 76.1321C62.2274 76.1321 63.4419 75.0881 63.4462 73.5497C63.4419 72.0369 62.1934 71.3466 60.8809 71.0355L60.0627 70.831C59.3468 70.6605 58.5712 70.358 58.5797 69.6293C58.584 68.973 59.172 68.4915 60.1607 68.4915C61.1024 68.4915 61.7246 68.9304 61.8056 69.6719Z" fill="#141414"/>
<rect opacity="0.1" x="31" y="83.5332" width="26" height="8" rx="4" fill="#282828"/>
<g filter="url(#filter2_d_1272_49808)">
<rect x="303" y="54" width="110" height="80" rx="18" fill="white"/>
</g>
<path d="M387.375 111C387.375 109.55 388.55 108.375 390 108.375C391.45 108.375 392.625 109.55 392.625 111V119.375C392.625 120.825 391.45 122 390 122C388.55 122 387.375 120.825 387.375 119.375V111Z" fill="#282828"/>
<path d="M394.25 102.625C394.25 101.175 395.425 100 396.875 100C398.325 100 399.5 101.175 399.5 102.625V119.375C399.5 120.825 398.325 122 396.875 122C395.425 122 394.25 120.825 394.25 119.375V102.625Z" fill="#282828"/>
<path d="M385.75 119.375C385.75 120.825 384.575 122 383.125 122C381.675 122 380.5 120.825 380.5 119.375C380.5 117.925 381.675 116.75 383.125 116.75C384.575 116.75 385.75 117.925 385.75 119.375Z" fill="#282828"/>
<path d="M320.092 76H321.362V69.6037L323.787 72.0284L324.656 71.1506L320.727 67.2216L316.79 71.1506L317.676 72.0284L320.092 69.6037V76Z" fill="#23CE51"/>
<path d="M329.915 77.0909H330.819L330.823 76.1151C332.651 75.983 333.699 74.9773 333.704 73.5497C333.699 72.0369 332.451 71.3466 331.138 71.0355L330.857 70.9631L330.874 68.5298C331.556 68.6491 331.995 69.0582 332.063 69.6719H333.584C333.559 68.3168 332.493 67.3281 330.883 67.1747L330.887 66.1818H329.983L329.979 67.1747C328.381 67.3366 327.231 68.3168 327.235 69.7273C327.235 70.9801 328.125 71.7003 329.561 72.071L329.945 72.169L329.928 74.7472C329.165 74.6278 328.615 74.1932 328.56 73.4219H327.005C327.064 75.0199 328.164 75.9702 329.919 76.1151L329.915 77.0909ZM330.831 74.7472L330.848 72.4077C331.624 72.6335 332.118 72.9318 332.123 73.5369C332.118 74.1676 331.611 74.6193 330.831 74.7472ZM329.954 70.733C329.365 70.5455 328.829 70.2344 328.837 69.6293C328.841 69.0795 329.255 68.6534 329.971 68.5298L329.954 70.733ZM335.357 76H336.998L340.705 68.6236V67.2727H334.761V68.5938H339.069V68.6534L335.357 76ZM341.558 76.0938C342.061 76.0938 342.491 75.6761 342.496 75.1562C342.491 74.6449 342.061 74.2273 341.558 74.2273C341.038 74.2273 340.616 74.6449 340.621 75.1562C340.616 75.6761 341.038 76.0938 341.558 76.0938ZM344.131 76H345.772L349.479 68.6236V67.2727H343.535V68.5938H347.843V68.6534L344.131 76ZM353.782 76.1193C355.627 76.1193 356.914 74.8665 356.914 73.1321C356.914 71.4531 355.746 70.2429 354.161 70.2429C353.453 70.2429 352.827 70.5241 352.503 70.9077H352.452L352.703 68.5938H356.458V67.2727H351.395L350.939 71.7727L352.367 72.0071C352.661 71.6832 353.215 71.4659 353.739 71.4702C354.698 71.4744 355.388 72.1818 355.384 73.1705C355.388 74.1463 354.715 74.8409 353.782 74.8409C352.993 74.8409 352.358 74.3423 352.303 73.6264H350.769C350.811 75.0753 352.077 76.1193 353.782 76.1193Z" fill="#141414"/>
<rect opacity="0.1" x="315" y="83" width="32" height="8" rx="4" fill="#282828"/>
</g>
<defs>
<filter id="filter0_d_1272_49808" x="122.556" y="0.344332" width="186.889" height="201.889" filterUnits="userSpaceOnUse" color-interpolation-filters="sRGB">
<feFlood flood-opacity="0" result="BackgroundImageFix"/>
<feColorMatrix in="SourceAlpha" type="matrix" values="0 0 0 0 0 0 0 0 0 0 0 0 0 0 0 0 0 0 127 0" result="hardAlpha"/>
<feOffset dy="6.78878"/>
<feGaussianBlur stdDeviation="9.22222"/>
<feColorMatrix type="matrix" values="0 0 0 0 0 0 0 0 0 0 0 0 0 0 0 0 0 0 0.12 0"/>
<feBlend mode="normal" in2="BackgroundImageFix" result="effect1_dropShadow_1272_49808"/>
<feBlend mode="normal" in="SourceGraphic" in2="effect1_dropShadow_1272_49808" result="shape"/>
</filter>
<filter id="filter1_d_1272_49808" x="0.555555" y="42.3443" width="146.889" height="116.889" filterUnits="userSpaceOnUse" color-interpolation-filters="sRGB">
<feFlood flood-opacity="0" result="BackgroundImageFix"/>
<feColorMatrix in="SourceAlpha" type="matrix" values="0 0 0 0 0 0 0 0 0 0 0 0 0 0 0 0 0 0 127 0" result="hardAlpha"/>
<feOffset dy="6.78878"/>
<feGaussianBlur stdDeviation="9.22222"/>
<feColorMatrix type="matrix" values="0 0 0 0 0 0 0 0 0 0 0 0 0 0 0 0 0 0 0.12 0"/>
<feBlend mode="normal" in2="BackgroundImageFix" result="effect1_dropShadow_1272_49808"/>
<feBlend mode="normal" in="SourceGraphic" in2="effect1_dropShadow_1272_49808" result="shape"/>
</filter>
<filter id="filter2_d_1272_49808" x="284.556" y="42.3443" width="146.889" height="116.889" filterUnits="userSpaceOnUse" color-interpolation-filters="sRGB">
<feFlood flood-opacity="0" result="BackgroundImageFix"/>
<feColorMatrix in="SourceAlpha" type="matrix" values="0 0 0 0 0 0 0 0 0 0 0 0 0 0 0 0 0 0 127 0" result="hardAlpha"/>
<feOffset dy="6.78878"/>
<feGaussianBlur stdDeviation="9.22222"/>
<feColorMatrix type="matrix" values="0 0 0 0 0 0 0 0 0 0 0 0 0 0 0 0 0 0 0.12 0"/>
<feBlend mode="normal" in2="BackgroundImageFix" result="effect1_dropShadow_1272_49808"/>
<feBlend mode="normal" in="SourceGraphic" in2="effect1_dropShadow_1272_49808" result="shape"/>
</filter>
<clipPath id="clip0_1272_49808">
<rect width="418" height="203" fill="white"/>
</clipPath>
</defs>
</svg>
