<svg xmlns="http://www.w3.org/2000/svg" width="24.659" height="24.659" viewBox="0 0 24.659 24.659">
  <path id="slack" d="M5.181,15.581a2.59,2.59,0,1,1-2.589-2.589H5.181Zm1.306,0a2.59,2.59,0,0,1,5.18,0v6.487a2.59,2.59,0,1,1-5.179,0V15.581Zm2.591-10.4a2.59,2.59,0,1,1,2.59-2.589V5.181Zm0,1.306a2.59,2.59,0,1,1,0,5.18H2.591a2.59,2.59,0,1,1,0-5.179H9.077Zm10.4,2.59a2.591,2.591,0,1,1,2.591,2.591H19.477V9.077Zm-1.3,0a2.591,2.591,0,0,1-5.182,0V2.591a2.591,2.591,0,1,1,5.182,0V9.077Zm-2.593,10.4a2.592,2.592,0,1,1-2.589,2.592V19.477h2.589Zm0-1.3a2.591,2.591,0,0,1,0-5.182h6.487a2.591,2.591,0,1,1,0,5.183H15.581Z" />
</svg>
