<svg xmlns="http://www.w3.org/2000/svg" xmlns:xlink="http://www.w3.org/1999/xlink" width="98.92" height="99.047" viewBox="0 0 98.92 99.047">
  <defs>
    <filter id="fb-01" x="0" y="0" width="98.92" height="99.047" filterUnits="userSpaceOnUse">
      <feOffset dy="3" input="SourceAlpha"/>
      <feGaussianBlur stdDeviation="5" result="blur"/>
      <feFlood flood-color="#c2bcfc"/>
      <feComposite operator="in" in2="blur"/>
      <feComposite in="SourceGraphic"/>
    </filter>
    <filter id="fb-01-2" x="0" y="0" width="98.92" height="99.047" filterUnits="userSpaceOnUse">
      <feOffset dx="7" dy="10" input="SourceAlpha"/>
      <feGaussianBlur stdDeviation="5" result="blur-2"/>
      <feFlood flood-color="#7b72de" result="color"/>
      <feComposite operator="out" in="SourceGraphic" in2="blur-2"/>
      <feComposite operator="in" in="color"/>
      <feComposite operator="in" in2="SourceGraphic"/>
    </filter>
  </defs>
  <g data-type="innerShadowGroup">
    <g transform="matrix(1, 0, 0, 1, 0, 0)" filter="url(#fb-01)">
      <path id="fb-01-3" data-name="fb-01" d="M615,330.58c-2.885,0-5.7-.051-8.513.028-1.022.028-1.3-.261-1.247-1.261.087-1.734,0-3.476.03-5.215.057-3.042,1.177-4.263,4.172-4.449,1.624-.1,3.258-.081,4.886-.038.78.019,1.039-.216,1.022-1.011-.046-2.281-.025-4.564-.01-6.845,0-.589-.021-1.06-.8-1.113-3.678-.248-7.359-.733-11,.284a11.07,11.07,0,0,0-8.343,10.408c-.123,2.656-.131,5.323-.08,7.981.021,1.028-.288,1.291-1.276,1.255-2.007-.074-4.023.055-6.026-.051-1.155-.062-1.342.4-1.318,1.4.057,2.389.068,4.782,0,7.169-.032,1.047.222,1.439,1.344,1.386,2-.1,4.019,0,6.028-.04.844-.019,1.255.119,1.248,1.132q-.063,11.491,0,22.98c0,.884-.295,1.094-1.126,1.09-7.169-.028-14.342.076-21.509-.051-5.689-.1-9.6-4.254-9.607-9.931q-.019-24.527,0-49.057c.007-5.91,4.123-9.984,10.058-9.988q24.362-.013,48.721,0c6.022,0,10.111,4.066,10.118,10.1q.025,24.448,0,48.893a9.581,9.581,0,0,1-9.9,10c-5.1.059-10.213-.027-15.317.042-1.149.015-1.308-.4-1.3-1.4q.054-11.246-.006-22.49c-.006-1.09.3-1.382,1.357-1.338,2.007.083,4.019-.011,6.029.04.814.021,1.106-.22,1.2-1.062.331-2.906.761-5.8,1.174-8.85Z" transform="translate(-547.85 -284.63)" fill="#aea7ff" opacity="0.8"/>
    </g>
    <g transform="matrix(1, 0, 0, 1, 0, 0)" filter="url(#fb-01-2)">
      <path id="fb-01-4" data-name="fb-01" d="M615,330.58c-2.885,0-5.7-.051-8.513.028-1.022.028-1.3-.261-1.247-1.261.087-1.734,0-3.476.03-5.215.057-3.042,1.177-4.263,4.172-4.449,1.624-.1,3.258-.081,4.886-.038.78.019,1.039-.216,1.022-1.011-.046-2.281-.025-4.564-.01-6.845,0-.589-.021-1.06-.8-1.113-3.678-.248-7.359-.733-11,.284a11.07,11.07,0,0,0-8.343,10.408c-.123,2.656-.131,5.323-.08,7.981.021,1.028-.288,1.291-1.276,1.255-2.007-.074-4.023.055-6.026-.051-1.155-.062-1.342.4-1.318,1.4.057,2.389.068,4.782,0,7.169-.032,1.047.222,1.439,1.344,1.386,2-.1,4.019,0,6.028-.04.844-.019,1.255.119,1.248,1.132q-.063,11.491,0,22.98c0,.884-.295,1.094-1.126,1.09-7.169-.028-14.342.076-21.509-.051-5.689-.1-9.6-4.254-9.607-9.931q-.019-24.527,0-49.057c.007-5.91,4.123-9.984,10.058-9.988q24.362-.013,48.721,0c6.022,0,10.111,4.066,10.118,10.1q.025,24.448,0,48.893a9.581,9.581,0,0,1-9.9,10c-5.1.059-10.213-.027-15.317.042-1.149.015-1.308-.4-1.3-1.4q.054-11.246-.006-22.49c-.006-1.09.3-1.382,1.357-1.338,2.007.083,4.019-.011,6.029.04.814.021,1.106-.22,1.2-1.062.331-2.906.761-5.8,1.174-8.85Z" transform="translate(-547.85 -284.63)" fill="#fff" opacity="0.8"/>
    </g>
  </g>
</svg>
