<svg xmlns="http://www.w3.org/2000/svg" xmlns:xlink="http://www.w3.org/1999/xlink" width="107.844" height="108" viewBox="0 0 107.844 108">
  <defs>
    <filter id="google-01" x="0" y="0" width="107.844" height="108" filterUnits="userSpaceOnUse">
      <feOffset dy="5" input="SourceAlpha"/>
      <feGaussianBlur stdDeviation="5" result="blur"/>
      <feFlood flood-color="#c2bcfc"/>
      <feComposite operator="in" in2="blur"/>
      <feComposite in="SourceGraphic"/>
    </filter>
    <filter id="google-01-2" x="0" y="0" width="107.844" height="108" filterUnits="userSpaceOnUse">
      <feOffset dx="7" dy="10" input="SourceAlpha"/>
      <feGaussianBlur stdDeviation="5" result="blur-2"/>
      <feFlood flood-color="#7b72de" result="color"/>
      <feComposite operator="out" in="SourceGraphic" in2="blur-2"/>
      <feComposite operator="in" in="color"/>
      <feComposite operator="in" in2="SourceGraphic"/>
    </filter>
  </defs>
  <g data-type="innerShadowGroup">
    <g transform="matrix(1, 0, 0, 1, 0, 0)" filter="url(#google-01)">
      <path id="google-01-3" data-name="google-01" d="M718.574,381.194c-6.907,0-13.563-.091-20.214.055-2.045.046-2.469-.577-2.372-2.433.163-3.143.11-6.3.014-9.452-.041-1.333.407-1.669,1.718-1.664,11.365.046,22.732.074,34.1-.027,1.687-.015,1.977.781,2.107,1.981,1.966,18.072-6.734,36.472-27.633,41.561-21.209,5.166-42.543-6.859-48.434-27.362C651.306,361.06,666.8,337.98,690.8,334.8a38.818,38.818,0,0,1,30.245,8.3c1.411,1.109,1.563,1.794.1,3.054-2.819,2.436-5.459,5.076-8.136,7.668-.686.663-1.11,1.006-2.068.209-13.584-11.271-36.087-3.557-39.136,15.645a24.693,24.693,0,0,0,11.16,24.4c8.216,5.141,19.267,5.112,27-.1a20.179,20.179,0,0,0,8.6-12.788Z" transform="translate(-641.35 -324.41)" fill="#aea7ff" opacity="0.8"/>
    </g>
    <g transform="matrix(1, 0, 0, 1, 0, 0)" filter="url(#google-01-2)">
      <path id="google-01-4" data-name="google-01" d="M718.574,381.194c-6.907,0-13.563-.091-20.214.055-2.045.046-2.469-.577-2.372-2.433.163-3.143.11-6.3.014-9.452-.041-1.333.407-1.669,1.718-1.664,11.365.046,22.732.074,34.1-.027,1.687-.015,1.977.781,2.107,1.981,1.966,18.072-6.734,36.472-27.633,41.561-21.209,5.166-42.543-6.859-48.434-27.362C651.306,361.06,666.8,337.98,690.8,334.8a38.818,38.818,0,0,1,30.245,8.3c1.411,1.109,1.563,1.794.1,3.054-2.819,2.436-5.459,5.076-8.136,7.668-.686.663-1.11,1.006-2.068.209-13.584-11.271-36.087-3.557-39.136,15.645a24.693,24.693,0,0,0,11.16,24.4c8.216,5.141,19.267,5.112,27-.1a20.179,20.179,0,0,0,8.6-12.788Z" transform="translate(-641.35 -324.41)" fill="#fff" opacity="0.8"/>
    </g>
  </g>
</svg>
