<svg xmlns="http://www.w3.org/2000/svg" xmlns:xlink="http://www.w3.org/1999/xlink" width="129.557" height="142.249" viewBox="0 0 129.557 142.249">
  <defs>
    <filter id="logo-tiktok" x="0" y="0" width="129.557" height="142.249" filterUnits="userSpaceOnUse">
      <feOffset dy="3" input="SourceAlpha"/>
      <feGaussianBlur stdDeviation="3" result="blur"/>
      <feFlood flood-color="#a59cff"/>
      <feComposite operator="in" in2="blur"/>
      <feComposite in="SourceGraphic"/>
    </filter>
    <filter id="logo-tiktok-2" x="0" y="0" width="129.557" height="142.249" filterUnits="userSpaceOnUse">
      <feOffset dx="7" dy="10" input="SourceAlpha"/>
      <feGaussianBlur stdDeviation="5" result="blur-2"/>
      <feFlood flood-color="#7b72de" result="color"/>
      <feComposite operator="out" in="SourceGraphic" in2="blur-2"/>
      <feComposite operator="in" in="color"/>
      <feComposite operator="in" in2="SourceGraphic"/>
    </filter>
  </defs>
  <g data-type="innerShadowGroup">
    <g transform="matrix(1, 0, 0, 1, 0, 0)" filter="url(#logo-tiktok)">
      <path id="logo-tiktok-3" data-name="logo-tiktok" d="M88.242,25.046c-.766-.4-1.481-.815-2.2-1.283a31,31,0,0,1-5.654-4.8,26.652,26.652,0,0,1-6.373-13.15h.023a16.288,16.288,0,0,1-.255-4.686H54.57V75.407c0,1,0,1.982-.043,2.956,0,.123-.013.242-.02.361,0,.056-.007.113-.013.169,0,.013,0,.027,0,.043a16.307,16.307,0,0,1-8.206,12.948,16.057,16.057,0,0,1-7.947,2.095,16.3,16.3,0,0,1,0-32.6,16.057,16.057,0,0,1,4.988.789l.023-19.56a35.665,35.665,0,0,0-27.484,8.043A37.724,37.724,0,0,0,7.639,60.789c-.812,1.4-3.871,7.019-4.242,16.133A38.14,38.14,0,0,0,5.459,89.675v.046a37.5,37.5,0,0,0,5.216,9.511,39.207,39.207,0,0,0,8.318,7.835v-.046l.046.046a35.874,35.874,0,0,0,19.6,5.9A34.653,34.653,0,0,0,53.2,109.748a36.521,36.521,0,0,0,11.818-8.882,36.887,36.887,0,0,0,6.443-10.7,40.048,40.048,0,0,0,2.32-12.242v-39.4c.232.139,3.337,2.194,3.337,2.194A44.25,44.25,0,0,0,88.56,45.445a65.816,65.816,0,0,0,11.749,1.607V27.979c-2.363.265-7.162-.481-12.073-2.93Z" transform="translate(21.38 4.42) rotate(8)" fill="#aea7ff" opacity="0.8"/>
    </g>
    <g transform="matrix(1, 0, 0, 1, 0, 0)" filter="url(#logo-tiktok-2)">
      <path id="logo-tiktok-4" data-name="logo-tiktok" d="M88.242,25.046c-.766-.4-1.481-.815-2.2-1.283a31,31,0,0,1-5.654-4.8,26.652,26.652,0,0,1-6.373-13.15h.023a16.288,16.288,0,0,1-.255-4.686H54.57V75.407c0,1,0,1.982-.043,2.956,0,.123-.013.242-.02.361,0,.056-.007.113-.013.169,0,.013,0,.027,0,.043a16.307,16.307,0,0,1-8.206,12.948,16.057,16.057,0,0,1-7.947,2.095,16.3,16.3,0,0,1,0-32.6,16.057,16.057,0,0,1,4.988.789l.023-19.56a35.665,35.665,0,0,0-27.484,8.043A37.724,37.724,0,0,0,7.639,60.789c-.812,1.4-3.871,7.019-4.242,16.133A38.14,38.14,0,0,0,5.459,89.675v.046a37.5,37.5,0,0,0,5.216,9.511,39.207,39.207,0,0,0,8.318,7.835v-.046l.046.046a35.874,35.874,0,0,0,19.6,5.9A34.653,34.653,0,0,0,53.2,109.748a36.521,36.521,0,0,0,11.818-8.882,36.887,36.887,0,0,0,6.443-10.7,40.048,40.048,0,0,0,2.32-12.242v-39.4c.232.139,3.337,2.194,3.337,2.194A44.25,44.25,0,0,0,88.56,45.445a65.816,65.816,0,0,0,11.749,1.607V27.979c-2.363.265-7.162-.481-12.073-2.93Z" transform="translate(21.38 4.42) rotate(8)" fill="#fff" opacity="0.8"/>
    </g>
  </g>
</svg>
